<svg width="102" height="112" viewBox="0 0 102 112" fill="none" xmlns="http://www.w3.org/2000/svg">
<path d="M100.6 0H86.2C78.2 0 71.7999 6.35461 71.7999 14.2979V37.9291H86.2C94.2 37.9291 100.6 31.5745 100.6 23.6312V0Z" fill="#57A52D"/>
<path d="M72 47.4609H86.4C94.3999 47.4609 100.8 53.8155 100.8 61.7588V85.39H86.4C78.4 85.39 72 79.0354 72 71.0921V47.4609Z" fill="#57A52D"/>
<path d="M0 85.39H14.4C22.4 85.39 28.8 79.0354 28.8 71.0921V47.4609H14.4C6.4 47.4609 0 53.8155 0 61.7588V85.39Z" fill="#57A52D"/>
<path d="M28.6 37.9291H14.4C6.4 37.9291 0 31.5745 0 23.6312V0H14.4C22.4 0 28.8 6.35461 28.8 14.2979V37.9291H28.6Z" fill="#57A52D"/>
<path d="M61.8 0H38.8V37.9291H61.8V0Z" fill="#00A3C9"/>
<path d="M61.8 47.4609H38.8V85.39H61.8V47.4609Z" fill="#00A3C9"/>
<path d="M12 98.2979L11.6 95.9149H14.8V105.248C14.8 109.22 12 112 7.40003 112C1.00002 112 0.800025 106.241 0.800025 105.844V98.0993L0.400024 95.7163H4.00003V105.645C4.00003 108.028 5.60003 109.617 7.80003 109.617C10 109.617 11.8 107.83 11.8 105.447V98.2979H12Z" fill="#575756"/>
<path d="M33.2 109.617L33.4 111.801H31.4L22.8 102.667L21.8 101.078V109.617L22 111.801H18.8V98.2979L18.6 95.7163H21L29.4 105.05L30.4 106.44V98.2979L30 95.7163H33.2V109.617Z" fill="#575756"/>
<path d="M40.6 105.645H44.6L42.8 101.078L42.6 100.085L42.4 101.078L40.6 105.645ZM41.8 95.9148L44 95.3191L49.2 108.624L50.6 111.603H47L45.6 107.83H40L38.6 111.603H35.6L41.8 95.9148Z" fill="#575756"/>
<path d="M67 109.617L67.2 111.801H63.6V105.05H55.8V109.617L56 111.801H52.4V98.2979L52.2 95.7163H55.8V102.468H63.6V98.2979L63.4 95.7163H67V109.617Z" fill="#575756"/>
<path d="M82.2 98.2979L81.8 95.9149H85V105.248C85 109.22 82.2 112 77.6 112C70.9999 112 70.9999 106.241 70.9999 105.844V98.0993L70.5999 95.7163H74.2V105.645C74.2 108.028 75.8 109.617 78 109.617C80.2 109.617 82 107.83 82 105.447V98.2979H82.2Z" fill="#575756"/>
<path d="M93.6 103.858C95.2 103.858 96.6 102.468 96.6 100.88C96.6 99.0923 95.2 98.0994 93.6 98.0994H92.4V103.858H93.6ZM98 111.802L93.8 106.241H92.6V109.816L92.8 111.802H89.2V98.298L88.8 95.915H94C97 95.915 100 97.5037 100 100.88C100 102.667 98.8 104.653 96.8 105.447L102 111.802H98Z" fill="#575756"/>
</svg>
